HIERARCHY
ROOT Hips
{
 OFFSET 0.000000 0.000000 0.000000
 CHANNELS 6 Xposition Yposition Zposition Yrotation Xrotation Zrotation
 JOINT Chest
 {
  OFFSET 0.000000 9.585900 0.002600
  CHANNELS 3 Yrotation Xrotation Zrotation
  JOINT Chest2
  {
   OFFSET 0.000000 9.601200 -0.005300
   CHANNELS 3 Yrotation Xrotation Zrotation
   JOINT Chest3
   {
    OFFSET 0.000000 9.561800 0.000000
    CHANNELS 3 Yrotation Xrotation Zrotation
    JOINT Chest4
    {
     OFFSET 0.000000 9.552100 0.000000
     CHANNELS 3 Yrotation Xrotation Zrotation
     JOINT Neck
     {
      OFFSET 0.000000 14.453000 0.000000
      CHANNELS 3 Yrotation Xrotation Zrotation
      JOINT Head
      {
       OFFSET 0.000000 8.936500 -0.011300
       CHANNELS 3 Yrotation Xrotation Zrotation
       End Site
       {
        OFFSET 0.000000 17.073600 -0.006000
       }
      }
     }
     JOINT RightCollar
     {
      OFFSET -2.921100 9.558500 0.000000
      CHANNELS 3 Yrotation Xrotation Zrotation
      JOINT RightShoulder
      {
       OFFSET -13.519700 0.000000 0.000000
       CHANNELS 3 Yrotation Xrotation Zrotation
       JOINT RightElbow
       {
        OFFSET 0.000000 -29.696600 0.000000
        CHANNELS 3 Yrotation Xrotation Zrotation
        JOINT RightWrist
        {
         OFFSET 0.000000 -24.004700 0.000000
         CHANNELS 3 Yrotation Xrotation Zrotation
         End Site
         {
          OFFSET 0.000000 -17.728500 0.000000
         }
        }
       }
      }
     }
     JOINT LeftCollar
     {
      OFFSET 2.921100 9.558500 0.000000
      CHANNELS 3 Yrotation Xrotation Zrotation
      JOINT LeftShoulder
      {
       OFFSET 13.519700 0.000000 0.000000
       CHANNELS 3 Yrotation Xrotation Zrotation
       JOINT LeftElbow
       {
        OFFSET 0.000000 -29.696600 0.000000
        CHANNELS 3 Yrotation Xrotation Zrotation
        JOINT LeftWrist
        {
         OFFSET 0.000000 -24.004700 0.000000
         CHANNELS 3 Yrotation Xrotation Zrotation
         End Site
         {
          OFFSET 0.000000 -17.728500 0.000000
         }
        }
       }
      }
     }
    }
   }
  }
 }
 JOINT RightHip
 {
  OFFSET -7.771700 -0.012900 -0.001300
  CHANNELS 3 Yrotation Xrotation Zrotation
  JOINT RightKnee
  {
   OFFSET 0.000000 -40.869800 0.001200
   CHANNELS 3 Yrotation Xrotation Zrotation
   JOINT RightAnkle
   {
    OFFSET 0.000000 -39.717900 0.002100
    CHANNELS 3 Yrotation Xrotation Zrotation
    JOINT RightToe
    {
     OFFSET 0.000000 -4.965400 11.033500
     CHANNELS 3 Yrotation Xrotation Zrotation
     End Site
     {
      OFFSET 0.000000 -1.423100 5.872300
     }
    }
   }
  }
 }
 JOINT LeftHip
 {
  OFFSET 7.771700 -0.012900 -0.001300
  CHANNELS 3 Yrotation Xrotation Zrotation
  JOINT LeftKnee
  {
   OFFSET 0.000000 -40.869800 0.001200
   CHANNELS 3 Yrotation Xrotation Zrotation
   JOINT LeftAnkle
   {
    OFFSET 0.000000 -39.717900 0.002100
    CHANNELS 3 Yrotation Xrotation Zrotation
    JOINT LeftToe
    {
     OFFSET 0.000000 -4.965400 11.033500
     CHANNELS 3 Yrotation Xrotation Zrotation
     End Site
     {
      OFFSET 0.000000 -1.423100 5.872300
     }
    }
   }
  }
 }
}
MOTION
Frames: 15
Frame Time: 0.008333
0.000000 85.388000 0.000000 0.000000 -5.767877 0.000000 0.000000 11.653817 0.000000 0.000000 -5.885947 0.000000 0.000000 -0.000000 0.000000 0.000000 -0.000000 0.000000 0.000000 12.528835 0.000000 0.000000 0.711642 0.000000 0.000000 -0.000000 0.000000 0.000000 0.000000 -90.000000 0.000000 -2.309062 0.000000 0.000000 2.309062 0.000000 0.000000 -0.000000 0.000000 0.000000 -0.000000 90.000000 0.000000 -2.309062 0.000000 0.000000 2.309062 0.000000 0.000000 8.520406 0.000000 0.000000 1.905762 0.000000 -0.000000 -4.658285 0.000000 0.000000 -0.000000 0.000000 0.000000 8.520406 0.000000 0.000000 1.905762 0.000000 -0.000000 -4.658285 0.000000 0.000000 -0.000000 0.000000
3.006485 50.079791 41.980377 172.439251 -30.993128 -6.316985 7.263280 21.308316 8.023038 0.875714 3.239549 0.854537 1.459237 5.155901 1.388875 5.913043 18.124851 5.685838 -0.601668 15.559099 1.832894 -1.788796 -6.860440 3.636756 -0.045265 -1.143091 -3.184871 6.847193 -16.438123 -8.348450 -173.894706 -65.648142 166.024737 -9.406853 -5.757008 4.114283 -14.458939 -1.676596 -0.172176 0.896186 -20.624271 3.304270 144.344994 -66.110171 -143.481448 38.290830 -0.854450 -9.531093 1.360586 -50.382617 10.142272 -89.537600 83.986163 -77.740107 -1.253529 -9.478509 -4.701791 -0.316079 1.030513 -0.078264 -10.430887 -53.874006 17.443228 -147.776850 82.793798 -155.203532 0.474433 -14.439710 7.185014 -0.278305 -0.756356 -0.164954
3.002784 50.082055 41.985183 172.421167 -31.007321 -6.337665 7.278870 21.391040 8.069294 0.889658 3.229169 0.853422 1.464798 5.188307 1.399802 5.918170 18.173141 5.709050 -0.502389 15.611520 1.904842 -1.628013 -6.764452 3.733278 -0.074405 -1.113912 -3.180693 6.837541 -16.459484 -8.401697 -174.131995 -65.642003 166.207665 -9.411579 -5.811316 4.232464 -14.477478 -1.669753 -0.152011 0.846037 -20.605381 3.335870 144.144625 -66.070271 -143.247770 38.143748 -0.835926 -9.193609 1.361419 -50.376002 10.194150 -89.372180 83.978532 -77.601401 -1.231940 -9.444919 -4.670907 -0.346247 1.022056 -0.088773 -10.461016 -53.862914 17.440117 -147.764054 82.793428 -155.140848 0.527970 -14.429987 7.135972 -0.258046 -0.762223 -0.169507
2.996550 50.085317 41.988054 172.418435 -31.036723 -6.354853 7.284571 21.467819 8.103274 0.895197 3.239795 0.857921 1.469779 5.219258 1.410708 5.922082 18.218982 5.732608 -0.410535 15.656193 1.969561 -1.478795 -6.682799 3.819414 -0.099210 -1.088922 -3.180600 6.828255 -16.455895 -8.445892 -174.446519 -65.622915 166.461802 -9.413630 -5.874379 4.350521 -14.497485 -1.662865 -0.137221 0.802188 -20.571607 3.373308 144.086236 -66.049785 -143.138593 37.960150 -0.802901 -8.828065 1.366368 -50.349428 10.214426 -89.291390 83.969862 -77.521641 -1.231087 -9.423970 -4.667216 -0.342198 1.012219 -0.081802 -10.494565 -53.833717 17.438305 -147.844633 82.802125 -155.207370 0.564010 -14.407312 7.142809 -0.254483 -0.779028 -0.192500
2.990795 50.088628 41.991117 172.425222 -31.068142 -6.381940 7.286181 21.535949 8.142014 0.897578 3.258547 0.864723 1.473546 5.247694 1.421453 5.922954 18.260966 5.756448 -0.325913 15.695940 2.028600 -1.341072 -6.610273 3.897660 -0.120973 -1.064353 -3.183571 6.816877 -16.435092 -8.481726 -174.875152 -65.597433 166.823155 -9.405876 -5.947791 4.444776 -14.516769 -1.651420 -0.128533 0.768108 -20.527923 3.416525 144.222793 -66.070263 -143.190514 37.730095 -0.751458 -8.456178 1.354640 -50.319513 10.240068 -89.239345 83.966105 -77.464447 -1.236909 -9.402826 -4.672078 -0.315471 1.002017 -0.083406 -10.537107 -53.802171 17.453147 -147.712162 82.796267 -155.061387 0.600636 -14.385964 7.122675 -0.243708 -0.789301 -0.172503
2.986290 50.091114 41.995671 172.434652 -31.091308 -6.418076 7.289397 21.584167 8.185674 0.896951 3.282934 0.873593 1.476194 5.272671 1.431907 5.921642 18.297587 5.780704 -0.249260 15.733813 2.083821 -1.216832 -6.541109 3.971706 -0.145028 -1.036011 -3.189621 6.801870 -16.404010 -8.507695 -175.457783 -65.575260 167.330905 -9.382038 -6.036629 4.490295 -14.532337 -1.635642 -0.124702 0.737260 -20.474817 3.467032 144.578774 -66.148058 -143.421134 37.459882 -0.694864 -8.106805 1.347881 -50.299779 10.263103 -89.174485 83.955129 -77.382199 -1.232270 -9.372347 -4.688429 -0.309472 0.990806 -0.081237 -10.601196 -53.779522 17.487403 -147.484012 82.783058 -154.820385 0.650745 -14.362559 7.099390 -0.227595 -0.802782 -0.167064
2.981748 50.091331 42.003704 172.421350 -31.090875 -6.442136 7.311051 21.587727 8.220749 0.895375 3.298431 0.879063 1.476119 5.300560 1.443593 5.921373 18.341831 5.811247 -0.180784 15.771006 2.137273 -1.107275 -6.472987 4.045542 -0.172196 -1.002045 -3.196493 6.779831 -16.364552 -8.524006 -176.210244 -65.560770 168.000184 -9.340195 -6.141376 4.476141 -14.542460 -1.619398 -0.122930 0.704934 -20.410021 3.526740 145.152654 -66.285040 -143.832439 37.161825 -0.649313 -7.800737 1.337344 -50.301128 10.300054 -88.989167 83.937244 -77.196315 -1.221401 -9.347195 -4.687765 -0.315332 0.989994 -0.080825 -10.728836 -53.773008 17.560230 -147.523139 82.787598 -154.878724 0.731494 -14.335952 7.079624 -0.259388 -0.813415 -0.164053
2.976335 50.093369 42.007919 172.428987 -31.110320 -6.464936 7.309812 21.637914 8.250126 0.897531 3.317934 0.887477 1.480830 5.266525 1.430967 5.924916 18.405274 5.854251 -0.121798 15.807254 2.190006 -1.015211 -6.406276 4.121559 -0.202527 -0.964984 -3.202347 6.752692 -16.313676 -8.533103 -177.129746 -65.550009 168.827252 -9.288169 -6.262323 4.413763 -14.548877 -1.603392 -0.120667 0.679673 -20.339150 3.590131 145.914880 -66.476290 -144.412226 36.843469 -0.626968 -7.550295 1.322114 -50.278601 10.315625 -88.892058 83.936272 -77.091422 -1.238118 -9.334860 -4.687186 -0.289148 0.990592 -0.091187 -10.796968 -53.751107 17.588665 -147.449607 82.786515 -154.808399 0.771348 -14.309915 7.072016 -0.255388 -0.828464 -0.172911
2.969695 50.095393 42.011678 172.438526 -31.126802 -6.477045 7.304636 21.695578 8.270567 0.900851 3.321124 0.890788 1.482037 5.280194 1.437934 5.924808 18.415692 5.869716 -0.073222 15.842638 2.241680 -0.942224 -6.340855 4.199338 -0.236892 -0.925574 -3.208656 6.724879 -16.249083 -8.532306 -178.193683 -65.539399 169.787643 -9.228131 -6.402188 4.325210 -14.550499 -1.587613 -0.117471 0.667953 -20.268434 3.649759 146.819288 -66.709175 -145.135270 36.509630 -0.638943 -7.351676 1.315567 -50.257472 10.311203 -88.806474 83.939060 -76.997153 -1.260634 -9.327695 -4.681924 -0.319995 0.996616 -0.111937 -10.833792 -53.734349 17.586669 -147.419540 82.791437 -154.772996 0.793551 -14.284624 7.066361 -0.246139 -0.840435 -0.179270
2.967837 50.096820 42.018402 172.431930 -31.125821 -6.507761 7.322862 21.702879 8.309363 0.900754 3.335878 0.898292 1.482500 5.336723 1.464645 5.917178 18.377069 5.853003 -0.032235 15.886344 2.299932 -0.887696 -6.279167 4.276384 -0.264372 -0.894506 -3.213822 6.683676 -16.150338 -8.507219 -179.348232 -65.523542 170.831569 -9.158601 -6.559781 4.220976 -14.545121 -1.561439 -0.108491 0.662878 -20.197231 3.709314 147.813054 -66.958606 -145.957802 36.171964 -0.689602 -7.181822 1.286242 -50.252604 10.348044 -88.642000 83.922678 -76.823726 -1.239200 -9.308631 -4.682526 -0.351962 0.995922 -0.122553 -10.884718 -53.735476 17.630772 -147.419935 82.794666 -154.760466 0.812963 -14.262004 7.074034 -0.247542 -0.835477 -0.172903
2.963863 50.099592 42.022212 172.436318 -31.135635 -6.525138 7.326063 21.746855 8.337562 0.904116 3.318966 0.894404 1.483467 5.349419 1.471950 5.913338 18.360554 5.843695 0.003753 15.943742 2.370768 -0.851428 -6.224138 4.351135 -0.305693 -0.824148 -3.193385 6.652200 -16.059858 -8.477699 179.477736 -65.496101 171.900103 -9.085733 -6.727467 4.099980 -14.533852 -1.517046 -0.087841 0.653798 -20.122191 3.773610 148.835596 -67.200240 -146.822005 35.842839 -0.775947 -7.003899 1.267743 -50.238434 10.362070 -88.556513 83.924384 -76.734115 -1.241105 -9.296813 -4.687833 -0.352096 0.995931 -0.127536 -10.906587 -53.724778 17.643839 -147.416366 82.800358 -154.751542 0.812785 -14.242254 7.086221 -0.237831 -0.837596 -0.173367
2.958563 50.102517 42.025245 172.433799 -31.143697 -6.525773 7.328776 21.766905 8.342366 0.906526 3.312601 0.894455 1.483475 5.366226 1.480772 5.915654 18.380791 5.865597 0.021236 15.956664 2.406091 -0.832683 -6.175534 4.423504 -0.357499 -0.771602 -3.194339 6.620086 -15.980969 -8.441788 178.347386 -65.454859 172.942509 -9.022424 -6.897207 3.963648 -14.523152 -1.529399 -0.090700 0.638114 -20.035624 3.848529 149.825247 -67.423085 -147.671244 35.523365 -0.890758 -6.780788 1.270816 -50.226885 10.354307 -88.473618 83.926911 -76.647025 -1.237913 -9.285554 -4.698713 -0.355765 0.997050 -0.126454 -10.859793 -53.717992 17.573919 -147.588102 82.826443 -154.878915 0.841514 -14.251292 7.075747 -0.259762 -0.816575 -0.173379
2.955242 50.105598 42.028241 172.427578 -31.148354 -6.530649 7.334577 21.777031 8.351281 0.910156 3.322175 0.898583 1.482098 5.364192 1.484157 5.925383 18.408285 5.901398 0.021352 15.954704 2.423684 -0.828542 -6.134443 4.491200 -0.399043 -0.751709 -3.218425 6.555553 -15.871255 -8.376958 177.293935 -65.399932 173.930383 -8.971252 -7.066548 3.810483 -14.524346 -1.569322 -0.115611 0.618293 -19.934251 3.942921 150.741680 -67.628816 -148.464170 35.208183 -1.027183 -6.493459 1.259793 -50.209801 10.348330 -88.291324 83.951897 -76.454786 -1.222415 -9.286644 -4.716786 -0.366491 1.010773 -0.133344 -10.818796 -53.714167 17.526572 -147.664449 82.843211 -154.913863 0.857686 -14.257416 7.067648 -0.266625 -0.802601 -0.176039
2.954218 50.108536 42.031218 172.413436 -31.149659 -6.538356 7.349059 21.777097 8.367858 0.908457 3.330670 0.899118 1.485276 5.360182 1.489728 5.926083 18.407682 5.897754 0.027667 15.973809 2.472885 -0.838440 -6.102944 4.552431 -0.416858 -0.729425 -3.216249 6.466738 -15.727519 -8.289387 176.304205 -65.330805 174.868271 -8.918496 -7.234893 3.623209 -14.505827 -1.541526 -0.094323 0.578666 -19.863703 4.025048 151.595264 -67.824429 -149.196472 34.893544 -1.182409 -6.141570 1.242426 -50.203271 10.369251 -88.128896 83.972774 -76.287799 -1.239051 -9.274712 -4.732015 -0.343233 1.017656 -0.138477 -10.808094 -53.711046 17.527719 -147.728298 82.853376 -154.959506 0.854212 -14.254609 7.070930 -0.265552 -0.798523 -0.179506
2.956615 50.111530 42.033677 172.408065 -31.150365 -6.562870 7.360904 21.773031 8.397235 0.909301 3.334174 0.903498 1.484141 5.356785 1.490278 5.927681 18.417000 5.912932 0.019055 15.974333 2.496812 -0.861898 -6.080434 4.608034 -0.433182 -0.714974 -3.231670 6.386380 -15.576821 -8.199673 175.337703 -65.250085 175.779406 -8.856789 -7.404729 3.380025 -14.489896 -1.536486 -0.090655 0.527535 -19.781189 4.117342 152.436353 -68.019872 -149.900954 34.580702 -1.361255 -5.746668 1.193945 -50.193072 10.411903 -87.941933 84.000434 -76.077440 -1.301159 -9.260580 -4.775413 -0.285837 1.010382 -0.127551 -10.824040 -53.706928 17.554655 -147.782129 82.860662 -154.996325 0.856693 -14.252281 7.077656 -0.269976 -0.790555 -0.181473
